#N struct 1103-color float x float y float farbe;
#N struct 1103-color-display float x float y float farbe;
#N struct 1106-color float x float y float farbe;
#N struct 1106-color-display float x float y float farbe;
#N struct 1100-matrixctrl float x float y float size float color float state;
#N struct 1434-color float x float y float farbe;
#N struct 1434-color-display float x float y float farbe;
#N struct 1437-color float x float y float farbe;
#N struct 1437-color-display float x float y float farbe;
#N struct 1431-matrixctrl float x float y float size float color float state;
#N struct 1484-color float x float y float farbe;
#N struct 1484-color-display float x float y float farbe;
#N struct 1487-color float x float y float farbe;
#N struct 1487-color-display float x float y float farbe;
#N struct 1481-matrixctrl float x float y float size float color float state;
#N canvas 650 30 725 454 10;
#X declare -path ../sys.comunication;
#X declare -path ./RSVP.frmwrk;
#X declare -path ./RSVP.frmwrk/sys.comunication;
#X declare -path ../sys.comunication;
#X declare -path ./RSVP.frmwrk;
#X declare -path ./RSVP.frmwrk/sys.comunication;
#X obj 10 7 cnv 15 700 440 empty empty empty 20 12 0 14 #000000 #404040 0;
#X obj 15 12 cnv 15 690 430 empty empty empty 20 12 0 14 #606060 #404040 0;
#X obj 514 304 cnv 15 190 35 empty empty .\$1. 5 18 0 16 #000000 #dcdcdc 0;
#X obj 278 426 cnv 15 110 16 empty empty jrsv(C).2022 15 8 0 12 #000000 #00f8fc 0;
#X obj 596 427 cnv 15 110 16 empty empty www.jrsv.net 15 8 0 12 #000000 #00f8fc 0;
#X obj 15 427 cnv 15 110 16 empty empty RSVP.FRAMEWORK 6 8 0 12 #000000 #00f8fc 0;
#N canvas 482 96 725 475 button 0;
#X obj 101 101 tgl 25 0 empty empty empty 17 7 0 10 #fc2828 #fc2828 #202020 0 1;
#X obj 203 167 sel 0 1;
#X msg 203 193 color 13 13 42;
#X msg 223 217 color 16 16 42;
#X msg 101 173 vis \$1;
#X obj 409 153 declare -path ../sys.comunication;
#X obj 373 230 pdcontrol;
#X msg 374 194 dir 0;
#X obj 371 253 p -;
#X obj 423 96 declare -path ./RSVP.frmwrk;
#X obj 423 116 declare -path ./RSVP.frmwrk/sys.comunication;
#X obj 127 101 cnv 15 60 25 empty empty CONTROL 5 12 0 12 #000000 #00f8fc 0;
#N canvas 2318 709 624 291 control 0;
#X obj 6 18 inlet;
#X obj 6 248 sendcanvas;
#X obj 226 41 ./modules/zANL-EXT \$1 ANLZ MTRX 10;
#X obj 466 41 ./modules/zLFO \$1 LFOs;
#X obj 6 3 cnv 15 600 35 empty empty RSVP.CONTROL.MODULES 30 18 0 24 #fc8000 #0400fc 0;
#X obj 6 244 cnv 15 600 35 empty empty DATA/ANALISYS/LFO 30 18 0 24 #fc8000 #0400fc 0;
#X obj 12 41 ./modules/zDATA \$1 DATA 18;
#X connect 0 0 1 0;
#X restore 101 284 pd control;
#X obj 226 91 loadbang;
#X obj 230 123 int 0;
#X connect 0 0 1 0;
#X connect 0 0 4 0;
#X connect 1 0 2 0;
#X connect 1 1 3 0;
#X connect 2 0 0 0;
#X connect 3 0 0 0;
#X connect 4 0 12 0;
#X connect 6 0 8 0;
#X connect 7 0 6 0;
#X connect 13 0 2 0;
#X connect 13 0 14 0;
#X connect 14 0 4 0;
#X coords 0 -1 1 1 88 27 2 100 100;
#X restore 605 348 pd button;
#N canvas 448 96 725 475 button 0;
#X obj 101 101 tgl 25 0 empty empty empty 17 7 0 10 #14e814 #14e814 #202020 0 1;
#X obj 203 167 sel 0 1;
#X msg 203 193 color 13 13 42;
#X msg 223 217 color 16 16 42;
#X msg 101 173 vis \$1;
#X obj 409 153 declare -path ../sys.comunication;
#X obj 373 230 pdcontrol;
#X msg 374 194 dir 0;
#X obj 371 253 p -;
#X obj 423 96 declare -path ./RSVP.frmwrk;
#X obj 423 116 declare -path ./RSVP.frmwrk/sys.comunication;
#X obj 127 101 cnv 15 45 25 empty empty MIXER 5 12 0 12 #000000 #00f8fc 0;
#X obj 101 21 loadbang;
#X msg 101 60 0;
#N canvas 553 535 843 292 MIXER 1;
#X obj 6 18 inlet;
#X obj 6 248 sendcanvas;
#X obj 6 3 cnv 15 570 35 empty empty MIXER 30 18 0 24 #9c00fc #00fc04 0;
#X obj 6 243 cnv 15 570 30 empty empty empty 30 18 0 24 #9c00fc #00fc04 0;
#X obj 578 3 ./modules/zMTRX \$1 MTRX 11;
#X obj 12 40 ./modules/channelstrip MASTER INSTR MTRX 0;
#X obj 201 40 ./modules/channelstrip \$1 GRN1 MTRX 3;
#X obj 264 40 ./modules/channelstrip \$1 MLT1 MTRX 4;
#X obj 327 40 ./modules/channelstrip \$1 MLT2 MTRX 5;
#X obj 390 40 ./modules/channelstrip \$1 VCDR MTRX 6;
#X connect 0 0 1 0;
#X restore 101 284 pd MIXER;
#X connect 0 0 1 0;
#X connect 0 0 4 0;
#X connect 1 0 2 0;
#X connect 1 1 3 0;
#X connect 2 0 0 0;
#X connect 3 0 0 0;
#X connect 4 0 14 0;
#X connect 6 0 8 0;
#X connect 7 0 6 0;
#X connect 12 0 13 0;
#X connect 13 0 0 0;
#X coords 0 -1 1 1 73 27 2 100 100;
#X restore 520 348 pd button;
#X obj 17 14 ./modules/zGRNS \$1 GRN1 MTRX 3;
#X obj 17 220 ./modules/zMLT1 \$1 MLT1 MTRX 4;
#X obj 266 220 ./modules/zMLT2 \$1 MLT2 MTRX 5;
#X obj 314 14 ./modules/zVCDR \$1 VCDR MTRX 6 24 5;
#X coords 0 454 1 453 100 30 0;
